<svg width="34" height="28" viewBox="0 0 34 28" fill="none" xmlns="http://www.w3.org/2000/svg">
<g clip-path="url(#clip0_49_95)">
<path fill-rule="evenodd" clip-rule="evenodd" d="M11.1733 13.6889C11.1733 12.7997 11.3358 11.9473 11.626 11.1477L6.54743 7.62473C5.55765 9.45033 5 11.5074 5 13.6889C5 15.8685 5.55697 17.9244 6.54538 19.7487L11.6212 16.2189C11.3338 15.423 11.1733 14.5737 11.1733 13.6889Z" fill="#FBBC05"/>
<path fill-rule="evenodd" clip-rule="evenodd" d="M20.0902 5.6C22.2166 5.6 24.1371 6.28444 25.6462 7.40444L30.036 3.42222C27.361 1.30667 23.9314 0 20.0902 0C14.1268 0 9.00165 3.09804 6.54743 7.62471L11.626 11.1477C12.7962 7.92089 16.1318 5.6 20.0902 5.6Z" fill="#EB4335"/>
<path fill-rule="evenodd" clip-rule="evenodd" d="M20.0902 21.7778C16.1318 21.7778 12.7962 19.4569 11.626 16.23L6.54743 19.7524C9.00165 24.2797 14.1268 27.3778 20.0902 27.3778C23.7709 27.3778 27.2848 26.1906 29.9222 23.9661L25.1015 20.5806C23.7414 21.359 22.0286 21.7778 20.0902 21.7778Z" fill="#34A853"/>
<path fill-rule="evenodd" clip-rule="evenodd" d="M34.4945 13.6889C34.4945 12.88 34.3573 12.0089 34.1515 11.2H20.0902V16.4889H28.1841C27.7794 18.2921 26.6778 19.6784 25.1015 20.5806L29.9222 23.9661C32.6926 21.6303 34.4945 18.1509 34.4945 13.6889Z" fill="#4285F4"/>
</g>
<defs>
<clipPath id="clip0_49_95">
<rect width="34" height="28" fill="white"/>
</clipPath>
</defs>
</svg>
