<svg width="76" height="76" viewBox="0 0 76 76" fill="none" xmlns="http://www.w3.org/2000/svg">
<path d="M33.535 21.3275C33.8913 19.7303 33.6181 20.4903 31.3203 17.1297C29.2541 14.1134 29.6816 9.82656 27.2353 7.695C25.7331 6.38875 23.8509 4.92219 16.8388 8.44906C14.4044 9.67219 9.54157 13.7038 4.03157 15.5503C-0.403744 17.0347 2.05438 18.8278 2.99844 19.1603C6.35907 20.3419 10.8063 17.7887 10.8063 17.7887C10.8063 17.7887 4.42938 21.9569 8.17594 22.9425C11.2159 23.7441 15.0456 20.0925 15.0456 20.0925C15.0456 20.0925 11.2931 24.0706 14.3628 25.0919C16.4706 25.7925 20.6566 21.7906 20.6566 21.7906C20.6566 21.7906 17.7294 25.8578 19.1425 26.7188C21.2919 28.025 24.8128 24.6584 24.8128 24.6584C24.8128 24.6584 22.0163 28.7434 23.4769 29.4084C25.6619 30.4059 28.9038 27.6034 28.9038 27.6034C28.9038 27.6034 32.8938 24.1834 33.535 21.3275Z" fill="#E0E0E0"/>
<path d="M21.185 8.17C21.185 8.17 17.3612 10.4144 15.9659 12.2194C15.7819 12.4569 14.6359 13.6028 15.6453 14.2619C15.9006 14.4281 16.6606 14.3212 17.1119 14.0481C19.1662 12.8012 22.8 9.84438 23.1978 9.99875C23.5956 10.1531 19.95 12.5519 18.7744 15.4553C18.335 16.5478 19.19 17.3316 21.4166 16.0194C23.8391 14.5944 25.9231 12.0828 26.2734 12.0947C26.2734 12.0947 25.2997 13.7928 24.0528 15.1347C22.7822 16.5062 21.8856 17.9016 22.8237 18.3409C24.0053 18.8991 26.5584 17.385 26.5584 17.385C26.5584 17.385 24.9316 19.3562 22.8237 19.8016C22.0816 19.9619 21.4997 19.8609 21.1434 19.4572C20.6031 18.8397 20.8109 17.8897 20.8109 17.8897C19.6887 18.335 17.7531 19.0594 16.6012 18.0856C15.7047 17.3256 16.9278 15.0991 16.9278 15.0991C16.9278 15.0991 14.7606 16.2984 13.5256 15.9363C12.8844 15.7463 11.9047 14.82 13.3356 12.8547C15.5919 9.785 21.185 8.17 21.185 8.17Z" fill="#BDBDBD"/>
<path d="M25.7569 29.7647C28.2328 26.5466 30.7087 23.3344 33.1847 20.1162L32.9709 19.19C32.8641 18.8634 31.8903 18.8219 30.5425 19.5997C29.64 20.1222 27.9834 21.9984 26.9206 20.9653C26.1844 20.2528 28.2981 17.7056 28.2981 17.7056C28.0072 17.7116 25.6619 19.2791 25.2878 20.8525C24.9672 22.1884 25.2759 23.7559 28.2922 22.23C28.3812 22.1825 28.4762 22.1291 28.5653 22.0756C28.1853 22.6753 27.8409 23.3047 27.55 23.9459C26.7069 25.7984 26.2081 27.7816 25.7569 29.7647Z" fill="#BDBDBD"/>
<path d="M48.3253 6.60844L48.3669 6.63852L48.3253 6.60844Z" fill="url(#paint0_linear_17_268)"/>
<path d="M51.7335 42.0553C45.7663 50.9972 40.7491 60.8475 29.3372 63.8637C29.2185 63.8934 29.0938 63.8578 29.0106 63.7688L10.3669 43.1953C9.8147 42.5837 10.0878 41.6159 10.8716 41.3606C18.5369 38.8431 23.3225 32.8462 27.5856 26.4516C33.4638 17.6462 38.4988 7.95625 49.5485 4.77969C49.97 4.61938 50.4628 4.72031 50.7835 5.07062C53.2594 7.80187 71.9328 25.5787 71.9625 25.6144C71.9744 25.6203 56.3113 35.1916 51.7335 42.0553Z" fill="#66BB6A"/>
<path d="M34.5028 46.1403C34.0991 45.7366 33.6181 45.5347 33.06 45.5406C32.5019 45.5466 31.7775 45.7722 30.8809 46.2175C29.6637 46.8647 28.6069 47.1675 27.7222 47.1378C26.8375 47.1022 26.0419 46.7341 25.3412 46.0275C24.6228 45.3091 24.2428 44.5075 24.2072 43.6288C24.1656 42.75 24.4684 41.9009 25.1156 41.0816L23.9816 39.9416C23.9016 39.8599 23.8568 39.7501 23.8568 39.6358C23.8568 39.5215 23.9016 39.4117 23.9816 39.33L24.3497 38.9619C24.5159 38.7956 24.7891 38.7956 24.9612 38.9619L26.1012 40.1078C26.9384 39.4725 27.8231 39.2113 28.7494 39.3181C29.5806 39.4191 30.4 39.8288 31.2016 40.565C31.3559 40.7075 31.3559 40.9569 31.2075 41.1053L30.5306 41.7822C30.3881 41.9247 30.1566 41.9247 30.0081 41.7881C29.4737 41.325 28.9216 41.0578 28.3575 40.9984C27.6984 40.9272 27.1166 41.1409 26.6178 41.6397C26.0953 42.1622 25.8281 42.6966 25.8222 43.2369C25.8162 43.7831 26.0537 44.2997 26.5347 44.7806C26.98 45.2319 27.4847 45.4397 28.0428 45.4159C28.6009 45.3922 29.3194 45.1547 30.21 44.7034C31.1006 44.2522 31.8547 43.9731 32.4959 43.8603C33.1312 43.7475 33.7131 43.7772 34.2356 43.9434C34.7581 44.1156 35.2509 44.4303 35.7141 44.8934C36.4503 45.6356 36.8244 46.455 36.8303 47.3516C36.8362 48.2481 36.48 49.1388 35.7556 50.0234L36.7056 50.9734C36.8719 51.1397 36.8719 51.4128 36.7056 51.585L36.3434 51.9472C36.1772 52.1134 35.9041 52.1134 35.7319 51.9472L34.7819 50.9972C33.8912 51.7334 32.9591 52.0838 31.9912 52.0363C31.1303 51.9947 30.305 51.6266 29.5212 50.9319C29.4836 50.8978 29.4535 50.8564 29.4326 50.8101C29.4118 50.7638 29.4008 50.7138 29.4002 50.663C29.3996 50.6123 29.4096 50.562 29.4294 50.5153C29.4492 50.4686 29.4784 50.4264 29.5153 50.3916L30.2041 49.7088C30.3406 49.5722 30.5603 49.5603 30.7087 49.685C31.2372 50.1422 31.7834 50.3738 32.3475 50.3856C32.9947 50.3975 33.6122 50.1066 34.2 49.5188C34.7759 48.9488 35.0906 48.355 35.1441 47.7553C35.1856 47.1556 34.9778 46.6153 34.5028 46.1403Z" fill="white"/>
<path d="M36.0228 50.3144L34.7759 51.0091L25.1394 41.1172L24.8128 40.7847L26.1012 40.1138L35.7378 50.0294L36.0228 50.3144Z" fill="white"/>
<path opacity="0.5" d="M45.0538 35.6072C49.7824 35.6072 53.6156 31.7739 53.6156 27.0453C53.6156 22.3167 49.7824 18.4834 45.0538 18.4834C40.3252 18.4834 36.4919 22.3167 36.4919 27.0453C36.4919 31.7739 40.3252 35.6072 45.0538 35.6072Z" fill="#2E7D32"/>
<path d="M54.72 46.5619C51.6622 51.1456 47.2566 59.8916 41.1884 64.7009C35.6191 69.1184 28.595 71.2975 28.595 71.2975L9.26843 48.6638L10.07 42.4531L29.0225 63.7747C29.0997 63.8578 29.2184 63.8994 29.3312 63.8697C40.7491 60.8534 45.7662 51.0031 51.7334 42.0613C56.3112 35.1975 63.1572 27.8825 71.9684 25.6263C72.6691 26.3981 72.3603 32.87 71.5944 33.1253C63.7866 35.7141 58.995 40.1434 54.72 46.5619Z" fill="#2E7D32"/>
<path d="M46.8172 49.59L48.6103 56.2103C48.6103 56.2103 54.0728 48.2184 54.9575 46.2828L52.9744 40.3156C50.3263 43.6109 46.8172 49.59 46.8172 49.59Z" fill="#FFC06C"/>
<path d="M46.3541 10.0997C46.8113 10.7587 47.6128 11.4416 48.9013 11.8394C49.3585 11.9819 49.8394 12.0531 50.3203 12.0531C51.3416 12.0531 52.1966 11.7384 52.7725 11.4475C54.2153 12.8962 56.0203 14.6597 57.766 16.3697C59.476 18.0441 61.2335 19.7659 62.6644 21.1969C62.2013 21.9034 61.8331 22.9722 61.9875 24.415C62.0588 25.08 62.5278 25.7569 63.0266 26.3091C59.8678 28.3397 53.8056 32.8522 47.5891 40.8084C46.2769 42.4888 44.9944 44.3531 43.7594 46.1522C40.6838 50.6291 37.5072 55.2484 33.2797 58.0747C32.781 57.2612 31.8606 56.2756 30.216 55.8659C29.8181 55.765 29.4263 55.7175 29.0522 55.7175C27.9953 55.7175 27.1641 56.1094 26.5703 56.5725L17.6047 46.265C18.3588 45.6772 19.0653 44.6737 19.1366 43.1241C19.1722 42.3997 18.7863 41.7406 18.3469 41.2419C22.7169 38.0059 27.3303 32.8462 29.8122 29.1412C30.1744 28.6009 30.5485 28.0369 30.9344 27.455C34.8175 21.5947 40.0781 13.6859 46.3541 10.0997ZM46.8231 8.71031C39.2706 12.4509 33.256 22.1944 28.975 28.5712C26.1725 32.7453 21.1078 38.19 16.7438 41.1291C16.7438 41.1291 18.1747 42.1444 18.1272 43.0647C18.0085 45.5347 16.0016 45.9503 16.0016 45.9503L26.5406 58.0628C26.5406 58.0628 27.3125 56.7091 29.0463 56.7091C29.3253 56.7091 29.6341 56.7447 29.9666 56.8278C32.3535 57.4216 32.8344 59.5234 32.8344 59.5234C39.5675 55.6047 43.6347 47.4881 48.3728 41.4141C54.8032 33.1787 61.1978 28.5119 64.6594 26.4634C64.6594 26.4634 63.0681 25.175 62.9791 24.2962C62.7356 21.9866 64.0419 21.1553 64.0419 21.1553C60.9841 18.0619 55.961 13.2466 52.921 10.165C52.921 10.165 51.8166 11.0319 50.3144 11.0319C49.9581 11.0319 49.5781 10.9844 49.1922 10.8656C47.0072 10.2066 46.8231 8.71031 46.8231 8.71031Z" fill="#2E7D32"/>
<path d="M31.9556 19.7837L26.1784 28.5178L46.8172 49.59C46.8172 49.59 50.1897 44.2581 52.9684 40.3156L31.9556 19.7837Z" fill="#FFECB3"/>
<path opacity="0.68" d="M53.8056 42.8213C53.8056 42.8213 49.7325 44.8934 48.6222 51.2109C48.2006 53.5978 48.6163 56.2103 48.6163 56.2103L51.9769 51.0388L54.3816 43.8484L53.8056 42.8213Z" fill="#D69136"/>
<path d="M52.6359 44.1928C53.8175 43.0587 54.2094 42.7084 57.9025 42.4413C61.5481 42.1741 63.2225 40.5769 67.83 41.5328C69.7775 41.9366 72.865 43.7178 72.0812 50.8191C71.7844 53.5266 71.8556 59.7847 73.1322 65.455C74.1593 70.015 71.3509 68.8453 70.579 68.21C67.824 65.9478 67.7053 60.8237 67.7053 60.8237C67.7053 60.8237 67.444 68.4356 64.6594 65.7459C62.4031 63.5609 63.5372 58.3953 63.5372 58.3953C63.5372 58.3953 62.0765 63.6678 59.6125 61.5659C57.9203 60.1231 59.179 54.4706 59.179 54.4706C59.179 54.4706 57.2137 59.0841 55.7531 58.3181C53.5206 57.1544 54.5775 52.3984 54.5775 52.3984C54.5775 52.3984 52.535 56.905 51.205 55.9966C49.2219 54.6428 49.9403 50.4212 49.9403 50.4212C49.9403 50.4212 50.5222 46.2175 52.6359 44.1928Z" fill="#E0E0E0"/>
<path d="M70.2644 47.0725C70.2644 47.0725 70.5494 50.7419 70.294 52.9328C70.1337 54.2925 70.0625 55.5394 68.8156 55.3553C68.5128 55.3078 67.8062 54.72 67.6815 52.4578C67.5509 50.0591 68.0497 46.8884 67.6994 46.6509C67.349 46.4075 67.3312 50.5697 65.5975 53.1763C64.9444 54.1559 63.8459 54.2628 63.6737 51.68C63.4837 48.8716 64.9384 45.5466 64.7306 45.2616C64.7306 45.2616 63.5015 46.7756 62.789 48.9191C62.0765 51.0625 61.7619 52.0719 60.9247 51.4544C59.4225 50.35 61.6253 45.9503 61.6253 45.9503C61.6253 45.9503 60.0103 47.3931 59.3097 49.4119C58.8644 50.6944 59.1078 52.8022 60.2478 53.3366C61.5897 53.9659 62.3734 52.8438 62.3734 52.8438C62.3734 52.8438 62.6584 56.4359 64.41 56.3588C66.0903 56.2816 66.5178 54.3875 66.5178 54.3875C66.5178 54.3875 66.4465 56.2163 68.1447 57.4691C68.97 58.0806 70.8878 58.1816 71.1253 55.7591C71.5112 51.8284 70.2644 47.0725 70.2644 47.0725Z" fill="#BDBDBD"/>
<path d="M56.4478 45.7841C56.0856 45.695 55.5631 47.3278 54.91 48.2481C54.6606 48.5925 54.1263 49.2991 53.3069 49.2397C52.4875 49.1803 53.1347 46.7697 52.9447 46.9003C52.7547 47.0309 51.9888 48.3194 52.2916 49.8156C52.3747 50.2312 52.7963 50.7241 53.2119 50.7894C54.7675 51.0387 55.4503 49.1269 55.4503 49.1269C55.4503 49.1269 55.2188 51.4128 56.7566 51.6503C58.615 51.9353 58.995 49.0081 58.8288 48.9012C58.6625 48.7944 58.0628 50.7419 56.7388 49.9106C55.6522 49.2219 56.81 45.8791 56.4478 45.7841Z" fill="#BDBDBD"/>
<path d="M9.26843 48.6578L28.5237 71.2144C28.5237 71.2144 29.3847 69.9378 29.5806 67.9487C29.7528 66.215 29.1472 63.9112 29.1472 63.9112L10.07 42.4472L9.26843 48.6578Z" fill="#206022"/>
<defs>
<linearGradient id="paint0_linear_17_268" x1="48.347" y1="6.6245" x2="48.347" y2="6.6245" gradientUnits="userSpaceOnUse">
<stop stop-color="#43A047"/>
<stop offset="0.999" stop-color="#66BB6A"/>
</linearGradient>
</defs>
</svg>
