<svg width="81" height="76" viewBox="0 0 81 76" fill="none" xmlns="http://www.w3.org/2000/svg">
<path d="M20.4884 33.25H30.4824C32.4461 33.25 34.3294 33.9954 35.718 35.3223C37.1065 36.6491 37.8866 38.4487 37.8866 40.3251V42.75H27.8926C25.9289 42.75 24.0456 42.0046 22.657 40.6777C21.2685 39.3509 20.4884 37.5513 20.4884 35.6749V33.25Z" fill="#027DE5"/>
<path d="M52.8516 42.75H42.8575V40.3251C42.8575 38.4487 43.6376 36.6491 45.0262 35.3223C46.4147 33.9954 48.298 33.25 50.2617 33.25H60.2558V35.6749C60.2558 37.5513 59.4757 39.3509 58.0872 40.6777C56.6986 42.0046 54.8153 42.75 52.8516 42.75Z" fill="#027DE5"/>
<path d="M57.7704 33.25V33.2999C57.77 35.1762 56.9898 36.9756 55.6013 38.3024C54.2129 39.6292 52.3298 40.3747 50.3661 40.375H42.8576V26.125C42.8576 25.4951 42.5957 24.891 42.1296 24.4456C41.6635 24.0002 41.0313 23.75 40.3721 23.75C39.7129 23.75 39.0807 24.0002 38.6146 24.4456C38.1485 24.891 37.8866 25.4951 37.8866 26.125V40.375H30.378C28.4144 40.3747 26.5313 39.6292 25.1428 38.3024C23.7544 36.9756 22.9742 35.1762 22.9738 33.2999V33.25H20.4884V35.6749C20.4887 37.5512 21.2689 39.3506 22.6574 40.6774C24.0459 42.0042 25.929 42.7497 27.8926 42.75H37.8866V51.0625H42.8576V42.75H52.8516C54.8152 42.7497 56.6983 42.0042 58.0868 40.6774C59.4753 39.3506 60.2555 37.5512 60.2558 35.6749V33.25H57.7704Z" fill="#0468AD"/>
<path d="M40.3721 27.3125C47.2355 27.3125 52.7994 21.9959 52.7994 15.4375C52.7994 8.87912 47.2355 3.5625 40.3721 3.5625C33.5087 3.5625 27.9448 8.87912 27.9448 15.4375C27.9448 21.9959 33.5087 27.3125 40.3721 27.3125Z" fill="#027DE5"/>
<path d="M52.7994 72.4375H27.9447L23.9705 54.7153H56.7737L52.7994 72.4375Z" fill="#CFCFD9"/>
<path d="M33.8316 72.4375H27.9448L23.968 54.7153H56.7762C55.6513 59.7321 52.7597 64.2285 48.5839 67.4539C44.4081 70.6792 39.2009 72.4383 33.8316 72.4375Z" fill="#D9DAE2"/>
<path d="M60.2558 48.6875H20.4884V55.8125H60.2558V48.6875Z" fill="#E5E6EB"/>
<path d="M60.2558 48.6875H55.2849V55.8125H60.2558V48.6875Z" fill="#CFCFD9"/>
<path d="M37.8866 65.3125H35.4012V67.6875H37.8866V65.3125Z" fill="#444444"/>
<path d="M45.343 65.3125H42.8575V67.6875H45.343V65.3125Z" fill="#444444"/>
<path d="M58.4985 26.6164C58.0323 26.171 57.7705 25.567 57.7705 24.9371C57.7705 24.3072 58.0323 23.7031 58.4985 23.2577L60.256 21.5783L62.0134 23.2577C62.4796 23.7031 62.7414 24.3072 62.7414 24.9371C62.7414 25.567 62.4796 26.171 62.0134 26.6164C61.5473 27.0618 60.9151 27.3121 60.256 27.3121C59.5968 27.3121 58.9646 27.0618 58.4985 26.6164Z" fill="#CCEAFF"/>
<path d="M58.4982 13.5541C58.0321 13.1088 57.7703 12.5047 57.7703 11.8748C57.7703 11.2449 58.0321 10.6408 58.4982 10.1954L60.2557 8.51601L62.0132 10.1954C62.4793 10.6408 62.7412 11.2449 62.7412 11.8748C62.7412 12.5047 62.4793 13.1088 62.0132 13.5541C61.5471 13.9995 60.9149 14.2498 60.2557 14.2498C59.5966 14.2498 58.9644 13.9995 58.4982 13.5541Z" fill="#CCEAFF"/>
<path d="M19.9728 21.6638C19.5067 21.2184 19.2449 20.6143 19.2449 19.9844C19.2449 19.3545 19.5067 18.7504 19.9728 18.305L21.7303 16.6257L23.4878 18.305C23.9539 18.7504 24.2158 19.3545 24.2158 19.9844C24.2158 20.6143 23.9539 21.2184 23.4878 21.6638C23.0217 22.1092 22.3895 22.3594 21.7303 22.3594C21.0711 22.3594 20.4389 22.1092 19.9728 21.6638Z" fill="#CCEAFF"/>
<path d="M19.9726 8.60151C19.5065 8.15611 19.2446 7.55202 19.2446 6.92213C19.2446 6.29224 19.5065 5.68815 19.9726 5.24275L21.7301 3.56338L23.4876 5.24275C23.9537 5.68815 24.2156 6.29224 24.2156 6.92213C24.2156 7.55202 23.9537 8.15611 23.4876 8.60151C23.0215 9.04691 22.3893 9.29713 21.7301 9.29713C21.0709 9.29713 20.4387 9.04691 19.9726 8.60151Z" fill="#CCEAFF"/>
<path d="M40.3721 24.9375H37.8866V40.375H40.3721V24.9375Z" fill="#027DE5"/>
<path d="M47.8186 5.947C49.6176 8.23044 50.493 11.0579 50.2836 13.9091C50.0743 16.7603 48.7943 19.4433 46.6793 21.4644C44.5642 23.4854 41.7564 24.7085 38.7726 24.9085C35.7888 25.1085 32.8298 24.2721 30.4402 22.553C31.5062 23.9159 32.8665 25.0438 34.4288 25.8602C35.9912 26.6765 37.719 27.1622 39.495 27.2842C41.2711 27.4063 43.0539 27.1619 44.7224 26.5676C46.3909 25.9733 47.9061 25.043 49.1652 23.8398C50.4243 22.6367 51.3979 21.1888 52.0198 19.5944C52.6418 18.0001 52.8976 16.2966 52.7698 14.5994C52.6421 12.9023 52.1339 11.2513 51.2795 9.75836C50.4252 8.26545 49.2449 6.9656 47.8186 5.947Z" fill="#0468AD"/>
<path d="M39.5568 12.4569C39.4209 12.3486 39.31 12.2145 39.2313 12.063C39.1526 11.9116 39.1078 11.7461 39.0997 11.5772C39.0916 11.4083 39.1205 11.2396 39.1844 11.0819C39.2484 10.9242 39.346 10.781 39.4711 10.6614C39.714 10.4402 40.0366 10.3169 40.3721 10.3169C40.7076 10.3169 41.0302 10.4402 41.2731 10.6614L43.2217 12.5234L44.9789 10.8442L43.0303 8.98106C42.6307 8.60373 42.1467 8.3179 41.6148 8.14506V3.62187C41.2059 3.58387 40.7921 3.5625 40.3721 3.5625C39.952 3.5625 39.5382 3.58387 39.1293 3.62187V8.14387C38.5971 8.31727 38.1127 8.60347 37.7126 8.98106C37.3432 9.33402 37.0547 9.75663 36.8657 10.222C36.6766 10.6873 36.591 11.1852 36.6144 11.6839C36.6378 12.1826 36.7696 12.6712 37.0015 13.1185C37.2333 13.5658 37.5602 13.9621 37.9612 14.2821L41.1836 16.8482C41.3194 16.9564 41.4302 17.0904 41.5089 17.2417C41.5876 17.393 41.6325 17.5583 41.6407 17.7271C41.6489 17.8959 41.6202 18.0644 41.5565 18.2221C41.4927 18.3797 41.3954 18.5229 41.2706 18.6426C41.0313 18.8708 40.707 18.9989 40.369 18.9989C40.0309 18.9989 39.7066 18.8708 39.4674 18.6426L37.5188 16.7806L35.7615 18.4597L37.7101 20.3229C38.1101 20.6987 38.594 20.9829 39.1256 21.1541V27.2531C39.5345 27.2911 39.9483 27.3125 40.3683 27.3125C40.7884 27.3125 41.2022 27.2911 41.6111 27.2531V21.1589C42.1428 20.9872 42.627 20.7031 43.0278 20.3276C43.3971 19.9746 43.6853 19.5519 43.8743 19.0866C44.0633 18.6213 44.1488 18.1235 44.1254 17.6248C44.1021 17.1262 43.9703 16.6376 43.7385 16.1903C43.5068 15.743 43.1801 15.3467 42.7792 15.0266L39.5568 12.4569Z" fill="white"/>
<path d="M60.2558 47.5H20.4884C20.1588 47.5 19.8427 47.6251 19.6096 47.8478C19.3766 48.0705 19.2456 48.3726 19.2456 48.6875V55.8125C19.2456 56.1274 19.3766 56.4295 19.6096 56.6522C19.8427 56.8749 20.1588 57 20.4884 57H23.2112L26.7294 72.6869C26.7891 72.9525 26.9423 73.1905 27.1635 73.3613C27.3847 73.532 27.6604 73.6251 27.9448 73.625H52.7994C53.0837 73.6251 53.3595 73.532 53.5807 73.3613C53.8019 73.1905 53.9551 72.9525 54.0148 72.6869L57.533 57H60.2558C60.5854 57 60.9015 56.8749 61.1346 56.6522C61.3676 56.4295 61.4985 56.1274 61.4985 55.8125V48.6875C61.4985 48.3726 61.3676 48.0705 61.1346 47.8478C60.9015 47.6251 60.5854 47.5 60.2558 47.5ZM51.794 71.25H28.9501L25.7538 57H54.9904L51.794 71.25ZM59.0131 54.625H21.7311V49.875H59.0131V54.625Z" fill="black"/>
<path d="M37.8866 65.3125H35.4012V67.6875H37.8866V65.3125Z" fill="black"/>
<path d="M45.343 65.3125H42.8575V67.6875H45.343V65.3125Z" fill="black"/>
</svg>
