<svg width="154" height="132" viewBox="0 0 154 132" fill="none" xmlns="http://www.w3.org/2000/svg">
<path d="M110.101 51.4723C80.3988 45.8906 104.747 10.5832 64.0514 13.5094C23.3557 16.4356 -15.2346 96.757 57.0131 115.564C129.261 134.372 166.497 62.0684 110.101 51.4723Z" fill="#464BD8"/>
<path d="M81.1358 108.127C80.9252 108.127 80.6996 108.088 80.5041 107.998L49.644 94.1402C49.4867 94.0702 49.3471 93.9743 49.2332 93.8579C49.1193 93.7415 49.0334 93.607 48.9803 93.4621C48.9272 93.3172 48.908 93.1647 48.9238 93.0134C48.9396 92.8621 48.9901 92.715 49.0725 92.5805L79.5567 42.6809C79.671 42.4926 79.844 42.3351 80.0563 42.2259C80.2687 42.1167 80.5121 42.06 80.7598 42.0621C80.9703 42.0621 81.1959 42.1008 81.3914 42.191L112.252 56.0484C112.913 56.3449 113.169 57.041 112.823 57.6082L82.3238 107.508C82.2106 107.694 82.0401 107.85 81.8306 107.959C81.6212 108.068 81.3808 108.126 81.1358 108.127Z" fill="#514DDF"/>
<path d="M80.7598 43.2223L111.62 57.0797L81.1358 106.966L50.2756 93.1219L80.7598 43.2223ZM80.7598 40.9148C80.4891 40.9148 80.2184 40.9535 79.9627 41.018C79.286 41.1984 78.7145 41.6109 78.3836 42.1523L47.8844 92.0519C47.7197 92.321 47.6187 92.6152 47.587 92.9178C47.5554 93.2204 47.5938 93.5254 47.7 93.8152C47.8062 94.105 47.9781 94.374 48.2059 94.6068C48.4337 94.8395 48.7128 95.0314 49.0274 95.1715L79.8875 109.029C80.2785 109.209 80.6996 109.287 81.1358 109.287C81.4065 109.287 81.6772 109.248 81.9328 109.184C82.6096 109.003 83.1811 108.591 83.5119 108.049L114.011 58.1367C114.34 57.5948 114.404 56.9632 114.19 56.3807C113.975 55.7982 113.5 55.3124 112.868 55.0301L82.008 41.1727C81.632 41.0051 81.1959 40.9148 80.7598 40.9148Z" fill="#151B28"/>
<path d="M80.9703 107.701C80.8199 107.701 80.6695 107.675 80.5342 107.637L42.335 96.4219C42.1671 96.3728 42.0121 96.2958 41.8789 96.1954C41.7457 96.095 41.6369 95.9731 41.5587 95.8366C41.4805 95.7002 41.4344 95.5518 41.4231 95.4001C41.4118 95.2484 41.4355 95.0962 41.4928 94.9523L66.1719 33.1805C66.3674 32.7035 66.8787 32.3941 67.4502 32.3941C67.6006 32.3941 67.7359 32.4199 67.8863 32.4586L106.086 43.6734C106.416 43.7766 106.702 43.9828 106.853 44.2535C107.003 44.5242 107.033 44.8465 106.913 45.1301L82.2486 106.915C82.1283 107.198 81.8877 107.443 81.5719 107.572C81.3764 107.662 81.1809 107.701 80.9703 107.701Z" fill="white"/>
<path d="M67.4652 33.5672L105.664 44.782L80.9703 106.541L42.7711 95.3262L67.4652 33.5672ZM67.4652 31.2598C67.0592 31.2598 66.6531 31.3371 66.2772 31.4918C65.6351 31.7629 65.1434 32.2399 64.9086 32.8195L40.2295 94.5785C39.7482 95.7902 40.5002 97.0922 41.8988 97.5047L80.0981 108.72C80.3838 108.797 80.6695 108.848 80.9703 108.848C81.3764 108.848 81.7824 108.771 82.1584 108.616C82.8051 108.346 83.2863 107.869 83.527 107.289L108.206 45.5168C108.687 44.3051 107.935 43.0031 106.537 42.5906L68.3375 31.3758C68.0518 31.2984 67.751 31.2598 67.4652 31.2598Z" fill="#151B28"/>
<path d="M67.4652 41.6367C66.4275 41.6367 65.4049 41.4949 64.4123 41.1985C64.0815 41.0953 63.7957 40.8891 63.6453 40.6184C63.4949 40.3477 63.4648 40.0254 63.5852 39.7418L66.202 33.1934C66.3975 32.7164 66.9088 32.407 67.4803 32.407C67.6307 32.407 67.766 32.4328 67.9164 32.4715L75.5563 34.7145C75.8871 34.8176 76.1729 35.0238 76.3233 35.2945C76.4736 35.5652 76.5037 35.8875 76.3834 36.1711C75.7445 37.7639 74.5421 39.1463 72.9437 40.1259C71.3452 41.1055 69.4302 41.6336 67.4652 41.6367Z" fill="white"/>
<path d="M67.4652 33.5672L75.1051 35.8102C74.5572 37.1741 73.527 38.3578 72.1577 39.1964C70.7884 40.0351 69.1482 40.4871 67.4652 40.4895C66.593 40.4895 65.7207 40.3734 64.8484 40.1156L67.4652 33.5672ZM67.4652 31.2598C66.3523 31.2598 65.2996 31.8656 64.9236 32.8195L62.3068 39.368C62.0812 39.948 62.1264 40.5797 62.4422 41.134C62.758 41.6883 63.3144 42.1008 63.9912 42.307C65.1191 42.6422 66.2922 42.8098 67.4803 42.8098C69.7242 42.8088 71.9117 42.2069 73.7371 41.0883C75.5625 39.9697 76.9346 38.3903 77.6617 36.5707C77.8873 35.9906 77.8422 35.359 77.5264 34.8047C77.21 34.2543 76.6535 33.8329 75.9773 33.6316L68.3375 31.3887C68.0367 31.2984 67.751 31.2598 67.4652 31.2598Z" fill="#151B28"/>
<path d="M103.033 52.4777C102.882 52.4777 102.732 52.452 102.596 52.4133C100.233 51.7175 98.2876 50.2463 97.188 48.3226C96.0884 46.3989 95.9241 44.1798 96.7312 42.1523C96.9267 41.6754 97.4381 41.366 98.0096 41.366C98.1599 41.366 98.2953 41.3918 98.4457 41.4305L106.086 43.6734C106.792 43.8797 107.168 44.5371 106.928 45.143L104.311 51.6914C104.191 51.975 103.95 52.2199 103.634 52.3488C103.439 52.4391 103.243 52.4777 103.033 52.4777Z" fill="white"/>
<path d="M98.0096 42.5391L105.649 44.782L103.033 51.3305C101.009 50.7326 99.3441 49.4718 98.4026 47.824C97.4612 46.1763 97.3198 44.2759 98.0096 42.5391ZM98.0096 40.2316C97.6035 40.2316 97.1975 40.309 96.8215 40.4637C96.1794 40.7348 95.6877 41.2118 95.4529 41.7914C93.5279 46.5996 96.5357 51.859 102.145 53.509C102.431 53.5992 102.732 53.6379 103.018 53.6379C104.13 53.6379 105.183 53.032 105.559 52.0781L108.176 45.5297C108.402 44.9496 108.356 44.318 108.041 43.7637C107.724 43.2133 107.168 42.7919 106.492 42.5906L98.8818 40.3477C98.6111 40.2703 98.3104 40.2316 98.0096 40.2316Z" fill="#151B28"/>
<path d="M50.426 98.7293C50.2756 98.7293 50.1252 98.7035 49.9898 98.6649L42.35 96.4219C42.0191 96.3188 41.7334 96.1125 41.583 95.8418C41.4326 95.5711 41.4025 95.2488 41.5228 94.9652L44.1396 88.4168C44.26 88.1332 44.5006 87.8883 44.8164 87.7594C45.1358 87.6266 45.5037 87.6081 45.8391 87.7078C48.2028 88.4036 50.1479 89.8748 51.2475 91.7985C52.3471 93.7223 52.5114 95.9413 51.7043 97.9688C51.584 98.2523 51.3434 98.4973 51.0275 98.6262C50.832 98.6906 50.6215 98.7293 50.426 98.7293Z" fill="white"/>
<path d="M45.4029 88.7906C49.6289 90.0281 51.8697 93.9598 50.426 97.582L42.7861 95.3391L45.4029 88.7906ZM45.4029 86.4832C44.9969 86.4832 44.5908 86.5605 44.2149 86.7152C43.5727 86.9864 43.0811 87.4634 42.8463 88.043L40.2295 94.5914C39.7482 95.8031 40.5002 97.1051 41.8988 97.5176L49.5387 99.7605C49.8244 99.8379 50.1102 99.8895 50.4109 99.8895C50.817 99.8895 51.2231 99.8121 51.599 99.6574C52.2457 99.3867 52.727 98.9098 52.9676 98.3297C53.9 95.9965 53.7195 93.4957 52.4563 91.2785C51.193 89.0613 48.9973 87.4113 46.2752 86.6121C45.9895 86.5219 45.6887 86.4832 45.4029 86.4832Z" fill="#151B28"/>
<path d="M80.9703 107.701C80.8199 107.701 80.6846 107.675 80.5342 107.637L72.8943 105.394C72.5635 105.291 72.2777 105.084 72.1273 104.814C71.977 104.543 71.9469 104.221 72.0672 103.937C72.7037 102.346 73.9034 100.964 75.4992 99.9841C77.095 99.0045 79.0075 98.4757 80.9703 98.4715C82.008 98.4715 83.0457 98.6133 84.0383 98.9098C84.3691 99.0129 84.6549 99.2191 84.8053 99.4898C84.9557 99.7605 84.9857 100.083 84.8654 100.366L82.2486 106.915C82.1575 107.144 81.9854 107.342 81.7563 107.483C81.5271 107.624 81.2524 107.7 80.9703 107.701Z" fill="white"/>
<path d="M80.9703 99.6187C81.8426 99.6187 82.7299 99.7348 83.6021 99.9926L80.9853 106.541L73.3455 104.298C73.8875 102.933 74.9141 101.748 76.2816 100.909C77.649 100.07 79.2885 99.6188 80.9703 99.6187ZM80.9703 97.3113C78.7264 97.3123 76.5389 97.9142 74.7135 99.0327C72.8881 100.151 71.5159 101.731 70.7889 103.55C70.3076 104.762 71.0596 106.064 72.4582 106.477L80.098 108.72C80.3838 108.797 80.6695 108.848 80.9703 108.848C81.3764 108.848 81.7824 108.771 82.1584 108.616C82.8051 108.346 83.2863 107.869 83.5269 107.289L86.1437 100.74C86.625 99.5285 85.873 98.2266 84.4744 97.8141C83.3314 97.4789 82.1584 97.3113 80.9703 97.3113Z" fill="#151B28"/>
<path d="M74.2328 89.2547C71.7664 89.2547 69.3301 88.9066 66.9689 88.2105C66.8185 88.159 66.6381 88.1203 66.4576 88.043C62.0807 86.6633 58.3174 84.1437 55.6958 80.8378C53.0742 77.5319 51.7258 73.6055 51.8396 69.6094C51.8396 69.5063 51.8697 69.3902 51.8998 69.3L56.0506 58.9102C56.0957 58.807 56.1558 58.7168 56.231 58.6266C60.4269 53.7539 67.1644 50.8535 74.2328 50.8535C76.6992 50.8535 79.1355 51.2016 81.4816 51.8977C89.2267 54.1664 94.8965 59.877 96.2801 66.7863C96.5357 68.0109 96.6561 69.2613 96.626 70.4988C96.626 70.602 96.5959 70.7051 96.5658 70.8082L92.415 81.198C92.3699 81.3012 92.3098 81.3914 92.2346 81.4816C88.0236 86.3414 81.3012 89.2547 74.2328 89.2547Z" fill="white"/>
<path d="M74.2178 51.8977C76.4887 51.8977 78.8047 52.2199 81.0756 52.8773C88.6402 55.0945 93.7986 60.6246 95.0619 66.9539C95.3025 68.1012 95.4229 69.2871 95.3928 70.4602L91.242 80.85C89.2717 83.1278 86.7078 84.9795 83.7547 86.2574C80.8016 87.5353 77.5409 88.2042 74.2328 88.2105C71.9619 88.2105 69.6459 87.8883 67.36 87.2309C67.2096 87.1922 67.0592 87.1406 66.9088 87.0762C66.8938 87.0762 66.8787 87.0633 66.8787 87.0633C58.2012 84.3176 52.8473 77.1891 53.0578 69.6352L57.2086 59.2453C61.1789 54.6305 67.5404 51.8977 74.2178 51.8977ZM74.2178 49.7965C66.7584 49.7965 59.66 52.8645 55.2234 57.9949C55.0731 58.1625 54.9527 58.3559 54.8775 58.5621L50.7268 68.952C50.6516 69.1582 50.6064 69.3645 50.5914 69.5836C50.4763 73.7917 51.897 77.9255 54.6551 81.4081C57.4132 84.8907 61.3711 87.5482 65.9764 89.0098L66.5479 89.2031C69.0293 89.9379 71.601 90.2988 74.2027 90.2988C81.6621 90.2988 88.7455 87.2309 93.182 82.1004C93.3324 81.9328 93.4527 81.7395 93.5279 81.5332L97.6787 71.1434C97.7539 70.9371 97.799 70.7309 97.8141 70.5117C97.8592 69.2098 97.7238 67.882 97.4531 66.5801C96.7348 63.0044 94.9061 59.6607 92.1592 56.9001C89.4123 54.1396 85.8486 52.0643 81.8426 50.8922C79.3912 50.1703 76.8195 49.7965 74.2178 49.7965Z" fill="#151B28"/>
<path d="M95.3928 70.4602L91.242 80.85C85.9031 87.0375 76.3233 89.8477 67.36 87.218C67.2096 87.1793 67.0592 87.1277 66.9088 87.0633C66.8938 87.0633 66.8787 87.0504 66.8787 87.0504C60.3969 82.9641 57.4192 75.5906 60.1713 68.7199C63.5551 60.2508 74.308 55.7391 84.1736 58.6266C86.5442 59.3187 88.7296 60.4094 90.6019 61.835C92.4742 63.2605 93.9956 64.992 95.077 66.9281C95.3171 68.0937 95.4229 69.2768 95.3928 70.4602Z" fill="#2AEFC8"/>
<path d="M68.6533 64.0535C66.999 64.7496 65.9463 65.4328 65.2996 67.057C64.5777 68.8746 65.4951 70.473 67.4803 71.0531C72.6086 72.5613 74.3531 63.989 81.6771 66.1418C84.8805 67.0828 86.3543 69.4547 85.6926 72.2906L89.0463 73.2703L88.4146 74.843L85.091 73.8633C84.1285 75.668 82.3088 77.1762 80.5342 77.9883L79.2408 76.4801C80.9553 75.6551 82.5644 74.482 83.2863 72.6644C84.1736 70.4344 83.2111 68.8875 81.0154 68.243C75.2855 66.5543 73.3906 75.0879 66.7433 73.1285C63.7807 72.2648 62.3219 69.9187 62.8783 67.3406L59.5246 66.3609L60.1562 64.7883L63.4799 65.768C64.4273 63.9891 65.9312 63.0996 67.6006 62.468L68.6533 64.0535Z" fill="black"/>
</svg>
