<svg width="41" height="41" viewBox="0 0 41 41" fill="none" xmlns="http://www.w3.org/2000/svg">
<path d="M21.7813 4.48438C24.9844 4.26657 27.2266 4.48438 31.8711 8.96875C36.5157 13.4531 36.9577 16.6563 37.0794 20.6602C37.1407 22.6031 36.8104 24.5385 36.1082 26.3511C35.4061 28.1638 34.3464 29.8166 32.9922 31.2113C30.3913 33.7738 25.6699 37.0602 19.6032 36.458C13.5365 35.8558 10.8907 34.3631 7.91817 30.75C4.94567 27.1369 3.9527 21.7813 3.88864 19.5711C3.82458 17.3609 4.9713 13.767 7.77724 10.5255C10.5832 7.28391 12.9022 5.125 21.7813 4.48438Z" fill="#1D1D1B"/>
<path d="M19.584 5.91938C22.2682 5.65672 24.8947 5.57985 27.1946 6.7586C29.4944 7.93735 32.9218 11.8836 33.4791 12.5627C33.8276 12.9821 34.1047 13.4561 34.2991 13.9656C34.2991 13.9656 33.178 14.7344 33.6008 16.6883C34.0236 18.6422 34.7604 19.4494 35.0807 19.712C35.2944 19.8806 35.5319 20.0166 35.7854 20.1156C35.7854 20.1156 35.984 24.2348 34.9013 26.4386C33.8186 28.6423 30.75 32.5438 27.9954 33.588C25.2407 34.6322 20.3847 36.8295 15.375 34.5041C10.3654 32.1786 8.87911 29.9813 7.04692 26.2656C5.21473 22.55 5.05458 18.8088 5.95145 16.1117C6.84833 13.4147 9.73755 9.86563 12.0822 8.26406C14.4269 6.6625 17.5468 6.11797 19.584 5.91938Z" fill="#E6E4DA"/>
<path d="M34.5938 14.7344C34.7091 14.7344 35.0934 15.8747 35.3945 17.0791C35.5766 17.6606 35.6313 18.2746 35.5547 18.8792C34.9693 18.4104 34.5422 17.7731 34.3311 17.0534C34.0428 15.9259 34.44 14.7344 34.5938 14.7344Z" fill="white"/>
<path d="M29.7378 10.0258C30.4137 10.4214 31.0162 10.9307 31.5188 11.5312C31.4803 11.6722 31.5764 12.0502 31.3778 11.9092C31.1792 11.7683 29.6161 10.5703 29.5777 10.4678C29.5661 10.3866 29.5746 10.3039 29.6025 10.2268C29.6304 10.1497 29.6769 10.0807 29.7378 10.0258Z" fill="#1D1D1B"/>
<path d="M29.6738 12.0822C30.475 12.683 31.2191 13.3564 31.8967 14.0937C31.9052 14.2295 31.8642 14.3638 31.7814 14.4717C31.7814 14.4717 29.5969 12.5947 29.5392 12.5114C29.4816 12.4281 29.6738 12.0822 29.6738 12.0822Z" fill="#1D1D1B"/>
<path d="M29.3535 13.6069C30.1205 14.1306 30.8388 14.7223 31.4996 15.375C31.4996 15.5544 31.4355 15.7978 31.3779 15.817C31.3202 15.8362 28.9947 14.3564 29.0332 14.177C29.0716 13.9977 29.2382 13.5492 29.3535 13.6069Z" fill="#1D1D1B"/>
<path d="M24.5295 11.5312C24.773 11.4234 25.0398 11.3787 25.3051 11.4013C25.5704 11.424 25.8257 11.5132 26.0474 11.6608C26.269 11.8083 26.4499 12.0095 26.5731 12.2455C26.6964 12.4815 26.7581 12.7449 26.7525 13.0111C26.7439 13.3384 26.6584 13.6591 26.503 13.9473C26.3476 14.2355 26.1266 14.4831 25.8579 14.6702C25.5892 14.8572 25.2802 14.9785 24.956 15.0241C24.6318 15.0698 24.3014 15.0385 23.9914 14.933C22.992 14.3884 22.8511 12.1719 24.5295 11.5312Z" fill="#1D1D1B"/>
<path d="M24.6768 12.0309C24.8454 11.9566 25.0299 11.9259 25.2134 11.9418C25.3969 11.9576 25.5735 12.0195 25.7268 12.1217C25.88 12.2239 26.0051 12.363 26.0903 12.5263C26.1755 12.6896 26.2182 12.8718 26.2143 13.0559C26.2058 13.2821 26.1444 13.5032 26.035 13.7013C25.9256 13.8995 25.7713 14.0692 25.5844 14.197C25.3975 14.3247 25.1833 14.4068 24.9589 14.4367C24.7345 14.4666 24.5063 14.4435 24.2925 14.3692C23.6134 14.0233 23.5109 12.4858 24.6768 12.0309Z" fill="white"/>
<path d="M9.73746 13.325C9.81433 13.325 10.4998 13.6645 10.4357 13.7286C9.82921 14.3571 9.37739 15.1182 9.11605 15.9516C8.79574 17.1495 8.93668 17.6108 8.73808 17.63C8.53949 17.6492 8.09746 17.63 8.05261 17.5083C8.11746 16.7745 8.29463 16.055 8.57793 15.375C8.91746 14.6062 9.51964 13.4083 9.73746 13.325Z" fill="#1D1D1B"/>
<path d="M15.7402 13.2673C17.393 12.8509 20.1092 13.7286 20.5064 16.9125C20.9036 20.0964 17.2264 21.7172 14.6447 20.1156C12.063 18.5141 10.8906 14.4845 15.7402 13.2673Z" fill="#1D1D1B"/>
<path d="M15.9772 14.4589C16.3531 14.3808 16.7414 14.3849 17.1156 14.4708C17.4897 14.5567 17.8409 14.7224 18.1451 14.9567C18.4493 15.1909 18.6993 15.488 18.8779 15.8278C19.0566 16.1676 19.1598 16.542 19.1804 16.9253C19.4494 19.0842 16.9574 20.1797 15.2085 19.1098C13.4596 18.04 12.6972 15.2853 15.9772 14.4589Z" fill="white"/>
<path d="M9.5197 21.3713C9.87204 21.2175 10.8586 21.3713 10.897 22.6973C10.9355 24.0234 10.0578 24.7602 9.09688 24.5167C8.13595 24.2733 7.63626 22.1977 9.5197 21.3713Z" fill="#1D1D1B"/>
<path d="M9.60937 22.0952C10.013 21.967 10.4742 22.4347 10.4102 23.0177C10.3461 23.6006 9.83359 24.2541 9.21219 24.017C9.0361 23.9005 8.89897 23.7338 8.81847 23.5386C8.73797 23.3434 8.71778 23.1285 8.76052 22.9217C8.80326 22.7149 8.90696 22.5256 9.05826 22.3783C9.20955 22.231 9.40151 22.1324 9.60937 22.0952Z" fill="white"/>
<path d="M19.2188 25.5609C20.1028 25.0869 20.9997 25.3752 21.2239 26.3361C21.2998 26.5773 21.3175 26.833 21.2755 27.0823C21.2336 27.3317 21.1332 27.5675 20.9826 27.7706C20.832 27.9737 20.6355 28.1382 20.4091 28.2508C20.1827 28.3633 19.9328 28.4207 19.68 28.4181C19.3456 28.3947 19.0289 28.2588 18.7814 28.0327C18.5339 27.8065 18.3702 27.5033 18.3167 27.1724C18.2633 26.8414 18.3233 26.5021 18.4871 26.2096C18.6508 25.917 18.9087 25.6884 19.2188 25.5609Z" fill="#1D1D1B"/>
<path d="M19.5262 26.1375C19.6453 26.0466 19.7883 25.9922 19.9377 25.9808C20.0871 25.9695 20.2366 26.0017 20.3681 26.0735C20.4996 26.1454 20.6075 26.2538 20.6786 26.3857C20.7498 26.5175 20.7812 26.6672 20.769 26.8166C20.7783 26.9859 20.7447 27.1548 20.6712 27.3076C20.5977 27.4604 20.4867 27.5922 20.3486 27.6906C20.2106 27.7891 20.0498 27.851 19.8814 27.8707C19.713 27.8903 19.5423 27.8671 19.3853 27.8031C18.7254 27.4828 18.687 26.6372 19.5262 26.1375Z" fill="white"/>
<path d="M13.2994 27.2394C13.3826 27.3227 13.2994 27.6814 13.7798 28.0786C14.2603 28.4758 14.5037 28.4822 14.4589 28.6231C14.4141 28.7641 14.382 28.9242 14.2411 28.9242C13.8804 28.7966 13.5523 28.591 13.2801 28.322C12.9598 28.0209 12.6395 27.3611 12.7997 27.297C12.9631 27.2564 13.131 27.2371 13.2994 27.2394Z" fill="#1D1D1B"/>
<path d="M11.9413 27.3995C12.1378 27.9079 12.434 28.3719 12.8125 28.7641C13.4531 29.4047 13.8567 29.5392 13.7927 29.6802C13.7286 29.8211 13.5556 30.0197 13.4147 29.962C12.92 29.5818 12.465 29.1525 12.0566 28.6808C11.6722 28.2388 11.275 27.5981 11.3711 27.502C11.4672 27.4059 11.9413 27.3995 11.9413 27.3995Z" fill="#1D1D1B"/>
<path d="M10.7177 27.5789C11.0649 28.2277 11.4679 28.845 11.9221 29.4239C12.6204 30.2055 12.9791 30.2823 12.9407 30.4041C12.9258 30.4724 12.8876 30.5334 12.8327 30.5767C12.7778 30.6199 12.7095 30.6427 12.6396 30.6411C12.441 30.6411 11.5761 29.8595 10.9611 29.142C10.3461 28.4245 10.0194 27.8992 10.1347 27.8031C10.3186 27.7036 10.5145 27.6282 10.7177 27.5789Z" fill="#1D1D1B"/>
<path d="M25.0549 30.3848C25.9774 30.3272 26.3938 30.7436 26.1503 31.807C25.9069 32.8705 25.0292 32.768 24.4719 32.4477C23.9145 32.1273 23.37 30.4809 25.0549 30.3848Z" fill="#1D1D1B"/>
<path d="M25.0933 30.9037C25.1983 30.9108 25.3 30.9436 25.3894 30.9993C25.4787 31.055 25.5529 31.1318 25.6055 31.223C25.6581 31.3142 25.6873 31.417 25.6907 31.5222C25.6942 31.6274 25.6716 31.7318 25.625 31.8262C25.5772 31.9145 25.5064 31.9883 25.4202 32.0396C25.3339 32.091 25.2354 32.1182 25.135 32.1182C25.0345 32.1182 24.936 32.091 24.8497 32.0396C24.7635 31.9883 24.6927 31.9145 24.6449 31.8262C24.5993 31.7377 24.5749 31.6398 24.5738 31.5403C24.5726 31.4407 24.5947 31.3423 24.6382 31.2528C24.6817 31.1632 24.7455 31.0851 24.8245 31.0245C24.9035 30.9639 24.9955 30.9226 25.0933 30.9037Z" fill="white"/>
<path d="M28.7128 22.755C30.3207 22.377 31.0959 22.8767 31.5379 24.5744C31.9799 26.272 30.3976 27.4828 29.1548 27.7391C27.912 27.9953 27.3162 27.8992 26.6307 26.3361C25.9453 24.773 26.4962 23.2739 28.7128 22.755Z" fill="#1D1D1B"/>
<path d="M28.5334 23.3572C29.0651 23.1906 30.2182 22.8127 30.6795 24.0747C31.1407 25.3367 31.0767 26.1183 30.0389 26.7589C29.001 27.3995 28.5526 27.5469 27.5468 26.6564C26.541 25.7659 26.3745 24.0363 28.5334 23.3572Z" fill="white"/>
<path d="M33.7994 20.5C34.3414 20.9583 34.8083 21.4987 35.1831 22.1016C35.1831 22.2617 35.0806 22.4988 35.0037 22.4603C34.4396 22.0072 33.9223 21.4985 33.4598 20.942C33.4791 20.7947 33.6584 20.5 33.7994 20.5Z" fill="#1D1D1B"/>
<path d="M32.8769 21.4545C32.8769 21.5827 34.7988 23.5173 34.7988 23.6967C34.7988 23.8761 34.7411 24.1195 34.6642 24.0747C33.9082 23.3802 33.1978 22.6376 32.5374 21.8517C32.5822 21.7812 32.8769 21.3969 32.8769 21.4545Z" fill="#1D1D1B"/>
<path d="M32.7807 23.3188C33.42 23.9039 34.0033 24.5473 34.5232 25.2406C34.5232 25.3816 34.4207 25.7211 34.3182 25.6763C34.2157 25.6314 32.3964 23.8184 32.3964 23.7544C32.3964 23.6903 32.6718 23.2931 32.7807 23.3188Z" fill="#1D1D1B"/>
</svg>
