<?xml version="1.0" encoding="utf-8"?><!-- Uploaded to: SVG Repo, www.svgrepo.com, Generator: SVG Repo Mixer Tools -->
<svg fill="#000000" width="800px" height="800px" viewBox="0 0 24 24" id="sign-out-4" data-name="Flat Line" xmlns="http://www.w3.org/2000/svg" class="icon flat-line"><path id="secondary" d="M20.62,11.31,17.5,9.17a1,1,0,0,0-1.5.69v4.28a1,1,0,0,0,1.5.69l3.12-2.14A.82.82,0,0,0,20.62,11.31Z" style="fill: rgb(44, 169, 188); stroke-width: 2;"></path><path id="primary" d="M7,12h9m4.62-.69L17.5,9.17a1,1,0,0,0-1.5.69v4.28a1,1,0,0,0,1.5.69l3.12-2.14A.82.82,0,0,0,20.62,11.31Z" style="fill: none; stroke: rgb(0, 0, 0); stroke-linecap: round; stroke-linejoin: round; stroke-width: 2;"></path><path id="primary-2" data-name="primary" d="M12,16v3a1,1,0,0,1-1,1H4a1,1,0,0,1-1-1V5A1,1,0,0,1,4,4h7a1,1,0,0,1,1,1V8" style="fill: none; stroke: rgb(0, 0, 0); stroke-linecap: round; stroke-linejoin: round; stroke-width: 2;"></path></svg>