<svg width="76" height="76" viewBox="0 0 76 76" fill="none" xmlns="http://www.w3.org/2000/svg">
<path d="M16.625 21.945C13.49 21.945 11.875 20.33 11.875 17.195C11.875 14.06 13.49 12.445 16.625 12.445H66.025C66.025 12.445 67.925 12.445 67.925 14.345V21.945H16.625Z" fill="#C89005"/>
<path d="M67.925 22.895H16.625C12.92 22.895 10.925 20.9 10.925 17.195C10.925 13.49 12.92 11.495 16.625 11.495H66.025C67.165 11.495 68.875 12.255 68.875 14.345V21.945C68.875 22.515 68.4 22.895 67.925 22.895ZM66.025 13.395H16.625C13.965 13.395 12.825 14.535 12.825 17.195C12.825 19.855 13.965 20.995 16.625 20.995H66.975V14.345C66.975 13.585 66.405 13.395 66.025 13.395Z" fill="#231C1C"/>
<path d="M67.355 36.67C67.545 37.715 66.88 38.665 65.835 38.95L21.185 48.07C20.14 48.26 19.19 47.595 18.905 46.55L13.395 19.57C13.205 18.525 13.87 17.575 14.915 17.29L59.565 8.17C60.61 7.98 61.56 8.645 61.845 9.69L67.355 36.67Z" fill="#C11F29"/>
<path d="M20.805 49.02C19.475 49.02 18.335 48.07 18.05 46.74L12.54 19.76C12.35 19 12.54 18.24 12.92 17.575C13.3 16.91 13.965 16.53 14.725 16.34L59.375 7.22C60.895 6.935 62.415 7.885 62.7 9.405L68.21 36.385C68.495 37.905 67.545 39.425 66.025 39.71L21.375 48.83C21.185 49.02 20.995 49.02 20.805 49.02ZM59.945 9.12H59.755L15.105 18.24C14.63 18.335 14.25 18.81 14.345 19.38L19.855 46.36C19.95 46.835 20.425 47.215 20.995 47.12L65.645 38C65.93 37.905 66.12 37.81 66.215 37.62C66.31 37.43 66.405 37.145 66.31 36.86L60.8 9.88C60.8 9.405 60.42 9.12 59.945 9.12Z" fill="#231C1C"/>
<path d="M63.84 19.57C63.935 20.235 63.27 20.995 62.225 21.185L17.575 30.305C16.53 30.495 15.58 30.115 15.485 29.45L14.82 26.315C14.725 25.65 15.39 24.89 16.435 24.7L61.085 15.58C62.13 15.39 63.08 15.77 63.175 16.435L63.84 19.57Z" fill="#513328"/>
<path d="M17.005 31.35C15.77 31.35 14.725 30.685 14.535 29.64L13.87 26.6C13.585 25.365 14.63 24.13 16.245 23.845L60.895 14.725C62.415 14.44 63.84 15.105 64.125 16.34L64.79 19.475C65.075 20.71 64.03 21.945 62.415 22.23L17.765 31.35H17.005ZM61.655 16.53H61.275L16.625 25.65C16.055 25.745 15.77 26.03 15.77 26.22L16.435 29.26C16.53 29.355 16.91 29.45 17.385 29.355L62.035 20.235C62.605 20.14 62.89 19.855 62.89 19.76L62.225 16.72C62.225 16.625 62.035 16.53 61.655 16.53ZM38.0827 35.8397L46.4579 34.1193L46.8407 35.9813L38.4646 37.7008L38.0827 35.8397ZM33.2557 40.6923L52.7991 36.6786L53.181 38.5406L33.6376 42.5543L33.2557 40.6923Z" fill="#231C1C"/>
<path d="M62.32 50.92C62.035 51.965 60.99 52.535 59.945 52.155L13.585 38C12.635 37.715 12.065 36.67 12.35 35.625L20.71 8.36C20.995 7.315 22.04 6.745 23.085 7.125L69.54 21.28C70.49 21.565 71.06 22.61 70.775 23.655L62.32 50.92Z" fill="#B8CA43"/>
<path d="M60.5149 53.295C60.2299 53.295 59.945 53.295 59.66 53.2L13.2999 38.95C12.5399 38.76 11.9699 38.19 11.5899 37.525C11.2099 36.86 11.2099 36.1 11.3999 35.34L19.7599 8.075C20.2349 6.555 21.7549 5.7 23.2749 6.175L69.7299 20.33C71.25 20.805 72.0099 22.42 71.6299 23.845L63.2699 51.11C63.0799 51.87 62.6049 52.44 61.9399 52.82C61.4649 53.105 60.9899 53.295 60.5149 53.295ZM22.5149 7.98C22.1349 7.98 21.7549 8.265 21.6599 8.645L13.2999 35.91C13.2049 36.195 13.2049 36.385 13.3949 36.67C13.4899 36.86 13.6799 37.05 13.9649 37.145L60.3249 51.3C60.5149 51.395 60.7999 51.3 60.9899 51.205C61.18 51.11 61.3699 50.92 61.4649 50.635L69.8249 23.37C70.0149 22.895 69.7299 22.325 69.2549 22.23L22.7049 8.075C22.6099 7.98 22.6099 7.98 22.5149 7.98Z" fill="#231C1C"/>
<path d="M59.85 43.225L64.315 28.69C62.32 28.12 61.275 25.935 61.845 23.94L27.835 13.585C27.265 15.58 25.08 16.72 23.18 16.15L18.715 30.685C20.71 31.255 21.755 33.44 21.185 35.435L55.1 45.79C55.765 43.795 57.855 42.655 59.85 43.225Z" fill="#B8CA43"/>
<path d="M55.7649 46.93L20.045 36.005L20.33 35.055C20.52 34.295 20.5199 33.535 20.1399 32.87C19.7599 32.205 19.19 31.73 18.525 31.54L17.575 31.255L22.61 14.915L23.56 15.2C24.985 15.675 26.5999 14.82 27.075 13.3L27.36 12.35L63.08 23.275L62.795 24.225C62.605 24.985 62.605 25.745 62.985 26.41C63.365 27.075 63.935 27.55 64.6 27.74L65.55 28.025L60.5149 44.365L59.565 44.08C58.14 43.605 56.525 44.46 56.05 45.98L55.7649 46.93ZM22.325 34.77L54.625 44.65C55.48 42.94 57.285 41.99 59.185 42.18L63.175 29.26C62.415 28.785 61.75 28.12 61.275 27.36C60.7999 26.505 60.705 25.65 60.8 24.7L28.5 14.82C27.645 16.53 25.745 17.48 23.94 17.29L19.9499 30.115C20.7099 30.59 21.375 31.255 21.85 32.015C22.23 32.87 22.42 33.82 22.325 34.77Z" fill="#231C1C"/>
<path d="M37.5874 42.3901C40.6714 43.3331 44.0389 42.8975 46.949 41.1791C49.8591 39.4607 52.0735 36.6003 53.1049 33.227C54.1363 29.8538 53.9003 26.2442 52.4489 23.1921C50.9975 20.1401 48.4494 17.8957 45.3653 16.9527C42.2813 16.0097 38.9138 16.4453 36.0037 18.1637C33.0936 19.8821 30.8792 22.7425 29.8478 26.1157C28.8164 29.489 29.0523 33.0986 30.5038 36.1507C31.9552 39.2027 34.5033 41.4471 37.5874 42.3901Z" fill="#E1E0A6"/>
<path d="M40.85 43.795C39.71 43.795 38.475 43.605 37.335 43.225C34.01 42.18 31.255 39.805 29.64 36.48C28.12 33.155 27.835 29.355 28.975 25.745C30.115 22.135 32.395 19.095 35.53 17.29C38.665 15.39 42.275 14.915 45.6 15.96C52.535 18.05 56.24 25.935 53.96 33.44C52.155 39.71 46.645 43.795 40.85 43.795ZM42.085 17.385C40.185 17.385 38.285 17.955 36.48 19C33.725 20.615 31.73 23.275 30.78 26.41C29.83 29.545 30.02 32.87 31.35 35.72C32.68 38.57 34.96 40.565 37.81 41.42C43.7 43.225 50.16 39.425 52.155 32.87C54.15 26.315 50.92 19.57 45.03 17.765C44.175 17.575 43.13 17.385 42.085 17.385Z" fill="#231C1C"/>
<path d="M36.6824 42.1125L44.4496 16.6715L46.2669 17.2263L38.4997 42.6673L36.6824 42.1125Z" fill="#231C1C"/>
<path d="M40.09 39.9C39.52 39.9 39.045 39.805 38.475 39.615C36.955 39.14 35.72 38.095 35.055 36.67C34.485 35.34 34.39 33.915 34.77 32.585L36.575 33.155C36.29 34.105 36.385 35.055 36.765 35.91C37.24 36.86 38 37.62 39.045 37.905C41.04 38.475 43.13 37.335 43.7 35.34C44.27 33.345 43.225 31.255 41.23 30.59C38.285 29.64 36.575 26.505 37.525 23.465C38 22.04 38.95 20.805 40.28 20.14C41.61 19.38 43.13 19.285 44.555 19.665C45.98 20.14 47.215 21.09 47.88 22.42C48.545 23.75 48.735 25.27 48.26 26.79L46.455 26.22C46.74 25.27 46.645 24.225 46.17 23.37C45.695 22.515 44.935 21.85 43.985 21.565C43.035 21.28 41.99 21.375 41.135 21.85C40.28 22.325 39.615 23.085 39.33 24.13C38.76 26.125 39.805 28.215 41.8 28.88C44.745 29.83 46.455 32.965 45.505 36.005C44.745 38.285 42.465 39.9 40.09 39.9Z" fill="#231C1C"/>
<path d="M70.775 58.045C70.775 59.09 69.92 59.945 68.875 59.945H13.775C12.73 59.945 11.875 59.09 11.875 58.045V17.195C11.875 20.045 13.775 21.945 16.625 21.945H68.875C69.92 21.945 70.775 22.8 70.775 23.845V58.045Z" fill="#EEBE00"/>
<path d="M68.875 60.895H13.775C12.16 60.895 10.925 59.66 10.925 58.045V17.195C10.925 16.625 11.305 16.245 11.875 16.245C12.445 16.245 12.825 16.625 12.825 17.195C12.825 19.475 14.345 20.995 16.625 20.995H68.875C70.49 20.995 71.725 22.23 71.725 23.845V58.045C71.725 59.66 70.395 60.895 68.875 60.895ZM12.825 21.565V58.045C12.825 58.615 13.205 58.995 13.775 58.995H68.875C69.445 58.995 69.825 58.615 69.825 58.045V23.845C69.825 23.275 69.445 22.895 68.875 22.895H16.625C15.105 22.895 13.775 22.42 12.825 21.565Z" fill="#231C1C"/>
<path d="M70.775 45.695H59.66C57.38 45.695 55.575 43.985 55.575 41.895V39.995C55.575 37.905 57.38 36.195 59.66 36.195H70.87V45.695H70.775Z" fill="#C89005"/>
<path d="M70.775 46.645H59.66C56.905 46.645 54.625 44.555 54.625 41.895V39.995C54.625 37.335 56.905 35.245 59.66 35.245H70.87C71.44 35.245 71.82 35.625 71.82 36.195V45.695C71.725 46.265 71.345 46.645 70.775 46.645ZM59.66 37.145C57.95 37.145 56.525 38.38 56.525 39.995V41.895C56.525 43.51 57.95 44.745 59.66 44.745H69.92V37.145H59.66Z" fill="#231C1C"/>
<path d="M16.8149 25.745H21.3749V27.645H16.8149V25.745Z" fill="#231C1C"/>
<path d="M24.415 25.745H28.975V27.645H24.415V25.745Z" fill="#231C1C"/>
<path d="M32.015 25.745H36.575V27.645H32.015V25.745Z" fill="#231C1C"/>
<path d="M39.615 25.745H44.175V27.645H39.615V25.745Z" fill="#231C1C"/>
<path d="M47.215 25.745H51.775V27.645H47.215V25.745Z" fill="#231C1C"/>
<path d="M54.8149 25.745H59.3749V27.645H54.8149V25.745Z" fill="#231C1C"/>
<path d="M62.415 25.745H66.975V27.645H62.415V25.745Z" fill="#231C1C"/>
<path d="M16.8149 54.245H21.3749V56.145H16.8149V54.245Z" fill="#231C1C"/>
<path d="M24.415 54.245H28.975V56.145H24.415V54.245Z" fill="#231C1C"/>
<path d="M32.015 54.245H36.575V56.145H32.015V54.245Z" fill="#231C1C"/>
<path d="M39.615 54.245H44.175V56.145H39.615V54.245Z" fill="#231C1C"/>
<path d="M47.215 54.245H51.775V56.145H47.215V54.245Z" fill="#231C1C"/>
<path d="M54.8149 54.245H59.3749V56.145H54.8149V54.245Z" fill="#231C1C"/>
<path d="M62.415 54.245H66.975V56.145H62.415V54.245Z" fill="#231C1C"/>
<path d="M58.425 40.945C58.425 41.4489 58.6252 41.9322 58.9815 42.2885C59.3379 42.6448 59.8211 42.845 60.325 42.845C60.829 42.845 61.3122 42.6448 61.6685 42.2885C62.0249 41.9322 62.225 41.4489 62.225 40.945C62.225 40.4411 62.0249 39.9578 61.6685 39.6015C61.3122 39.2452 60.829 39.045 60.325 39.045C59.8211 39.045 59.3379 39.2452 58.9815 39.6015C58.6252 39.9578 58.425 40.4411 58.425 40.945Z" fill="#231C1C"/>
</svg>
